<svg width="23" height="22" viewBox="0 0 23 22" fill="none" xmlns="http://www.w3.org/2000/svg">
<mask id="path-1-inside-1_211_2339" fill="white">
<path d="M14.3153 10.6106C14.1477 10.6106 13.9921 10.5645 13.8538 10.4904V10.4923C13.8538 10.756 13.7513 11.0037 13.5654 11.1891C13.3794 11.3751 13.1319 11.4776 12.8685 11.4776C12.6985 11.4776 12.5409 11.4304 12.4012 11.3543C12.387 11.5955 12.2906 11.821 12.1186 11.9932C11.9326 12.1792 11.6852 12.2817 11.4216 12.2817C10.898 12.2817 10.4727 11.8701 10.4421 11.3541C10.2801 11.4417 10.0969 11.4876 9.90794 11.4755C9.39282 11.4417 8.98941 10.9966 8.98941 10.462V6.03036L8.48479 6.9046C8.29259 7.23897 7.93281 7.44658 7.54544 7.44658C7.35668 7.44658 7.17022 7.39706 7.00509 7.30243C6.79944 7.18321 6.65234 6.99184 6.59117 6.76288C6.52967 6.53379 6.56149 6.29419 6.68038 6.08886C6.68055 6.08886 8.33145 3.22996 8.43217 3.05435C8.44414 3.02795 8.47825 2.95137 8.50728 2.8861C8.53499 2.82378 8.55877 2.75982 8.58157 2.69554C9.07943 1.28998 10.3122 0.416874 11.7989 0.416874C13.7296 0.416874 15.3003 2.12009 15.3003 4.21365L15.3005 9.62514C15.3005 9.88851 15.1982 10.136 15.0124 10.3221C14.8264 10.5081 14.5789 10.6106 14.3153 10.6106L14.3153 10.6106ZM11.799 0.940417C10.5214 0.940417 9.50322 1.66201 9.07504 2.87063C9.04765 2.94737 9.01912 3.02412 8.98583 3.0989C8.88924 3.31554 8.88924 3.31554 8.86201 3.34669L8.85841 3.34358C8.72361 3.59793 8.32314 4.29145 7.1337 6.35088C7.08483 6.43534 7.07187 6.53341 7.0968 6.62721C7.12205 6.72101 7.18257 6.80006 7.26637 6.84843C7.52646 6.99783 7.88267 6.9014 8.03091 6.64311L9.02454 4.92282C9.0839 4.82032 9.20394 4.76998 9.31907 4.80113C9.43354 4.8318 9.51307 4.93561 9.51307 5.05401V10.4621C9.51307 10.7173 9.7056 10.9375 9.94225 10.9531C10.0787 10.9603 10.206 10.9146 10.3016 10.8191C10.3885 10.7322 10.4364 10.6164 10.4364 10.4926V6.95564C10.4364 6.811 10.5536 6.69374 10.6983 6.69374C10.8429 6.69374 10.9602 6.81084 10.9602 6.95564L10.96 11.2966C10.96 11.5511 11.1671 11.7582 11.4216 11.7582C11.5453 11.7582 11.6614 11.7103 11.7485 11.6234C11.8354 11.5363 11.8833 11.4202 11.8833 11.2966V6.95564C11.8833 6.811 12.0004 6.69374 12.1452 6.69374C12.2898 6.69374 12.4071 6.81083 12.4071 6.95564L12.4069 10.4519V10.4926C12.4069 10.747 12.614 10.9541 12.8687 10.9541C12.9922 10.9541 13.108 10.906 13.1955 10.8188C13.2825 10.732 13.3303 10.6163 13.3303 10.4924V6.95545C13.3303 6.81081 13.4474 6.69356 13.5922 6.69356C13.7369 6.69356 13.8541 6.81065 13.8541 6.95545L13.8538 9.62526C13.8538 9.87994 14.0609 10.0871 14.3153 10.0871C14.4391 10.0871 14.5549 10.039 14.6418 9.95227C14.729 9.86502 14.7767 9.74891 14.7767 9.62526L14.7769 4.21377C14.7769 2.40905 13.441 0.940471 11.7989 0.940471L11.799 0.940417Z"/>
</mask>
<path d="M14.3153 10.6106C14.1477 10.6106 13.9921 10.5645 13.8538 10.4904V10.4923C13.8538 10.756 13.7513 11.0037 13.5654 11.1891C13.3794 11.3751 13.1319 11.4776 12.8685 11.4776C12.6985 11.4776 12.5409 11.4304 12.4012 11.3543C12.387 11.5955 12.2906 11.821 12.1186 11.9932C11.9326 12.1792 11.6852 12.2817 11.4216 12.2817C10.898 12.2817 10.4727 11.8701 10.4421 11.3541C10.2801 11.4417 10.0969 11.4876 9.90794 11.4755C9.39282 11.4417 8.98941 10.9966 8.98941 10.462V6.03036L8.48479 6.9046C8.29259 7.23897 7.93281 7.44658 7.54544 7.44658C7.35668 7.44658 7.17022 7.39706 7.00509 7.30243C6.79944 7.18321 6.65234 6.99184 6.59117 6.76288C6.52967 6.53379 6.56149 6.29419 6.68038 6.08886C6.68055 6.08886 8.33145 3.22996 8.43217 3.05435C8.44414 3.02795 8.47825 2.95137 8.50728 2.8861C8.53499 2.82378 8.55877 2.75982 8.58157 2.69554C9.07943 1.28998 10.3122 0.416874 11.7989 0.416874C13.7296 0.416874 15.3003 2.12009 15.3003 4.21365L15.3005 9.62514C15.3005 9.88851 15.1982 10.136 15.0124 10.3221C14.8264 10.5081 14.5789 10.6106 14.3153 10.6106L14.3153 10.6106ZM11.799 0.940417C10.5214 0.940417 9.50322 1.66201 9.07504 2.87063C9.04765 2.94737 9.01912 3.02412 8.98583 3.0989C8.88924 3.31554 8.88924 3.31554 8.86201 3.34669L8.85841 3.34358C8.72361 3.59793 8.32314 4.29145 7.1337 6.35088C7.08483 6.43534 7.07187 6.53341 7.0968 6.62721C7.12205 6.72101 7.18257 6.80006 7.26637 6.84843C7.52646 6.99783 7.88267 6.9014 8.03091 6.64311L9.02454 4.92282C9.0839 4.82032 9.20394 4.76998 9.31907 4.80113C9.43354 4.8318 9.51307 4.93561 9.51307 5.05401V10.4621C9.51307 10.7173 9.7056 10.9375 9.94225 10.9531C10.0787 10.9603 10.206 10.9146 10.3016 10.8191C10.3885 10.7322 10.4364 10.6164 10.4364 10.4926V6.95564C10.4364 6.811 10.5536 6.69374 10.6983 6.69374C10.8429 6.69374 10.9602 6.81084 10.9602 6.95564L10.96 11.2966C10.96 11.5511 11.1671 11.7582 11.4216 11.7582C11.5453 11.7582 11.6614 11.7103 11.7485 11.6234C11.8354 11.5363 11.8833 11.4202 11.8833 11.2966V6.95564C11.8833 6.811 12.0004 6.69374 12.1452 6.69374C12.2898 6.69374 12.4071 6.81083 12.4071 6.95564L12.4069 10.4519V10.4926C12.4069 10.747 12.614 10.9541 12.8687 10.9541C12.9922 10.9541 13.108 10.906 13.1955 10.8188C13.2825 10.732 13.3303 10.6163 13.3303 10.4924V6.95545C13.3303 6.81081 13.4474 6.69356 13.5922 6.69356C13.7369 6.69356 13.8541 6.81065 13.8541 6.95545L13.8538 9.62526C13.8538 9.87994 14.0609 10.0871 14.3153 10.0871C14.4391 10.0871 14.5549 10.039 14.6418 9.95227C14.729 9.86502 14.7767 9.74891 14.7767 9.62526L14.7769 4.21377C14.7769 2.40905 13.441 0.940471 11.7989 0.940471L11.799 0.940417Z" fill="#4CAF4F"/>
<path d="M14.3153 10.6106V9.68248H17.5943L14.8017 11.401L14.3153 10.6106ZM13.8538 10.4904H12.9257V8.93963L14.2924 9.67243L13.8538 10.4904ZM13.5654 11.1891L12.9091 10.5329L12.91 10.532L13.5654 11.1891ZM12.4012 11.3543L11.4746 11.3001L11.56 9.83945L12.845 10.5392L12.4012 11.3543ZM12.1186 11.9932L12.7752 12.6491L12.7749 12.6495L12.1186 11.9932ZM10.4421 11.3541L10.0008 10.5377L11.2822 9.84511L11.3685 11.2991L10.4421 11.3541ZM9.90794 11.4755L9.84844 12.4017L9.8472 12.4016L9.90794 11.4755ZM8.98941 6.03036L8.18562 5.56639L9.91751 2.56598V6.03036H8.98941ZM8.48479 6.9046L7.68015 6.44209L7.68099 6.44063L8.48479 6.9046ZM7.00509 7.30243L6.54367 8.10771L6.5396 8.10535L7.00509 7.30243ZM6.59117 6.76288L7.48753 6.52227L7.48781 6.52332L6.59117 6.76288ZM6.68038 6.08886L5.87721 5.6238L6.14533 5.16077H6.68038V6.08886ZM8.43217 3.05435L9.27743 3.43761L9.25921 3.4778L9.23725 3.51608L8.43217 3.05435ZM8.50728 2.8861L7.65926 2.50897L7.65927 2.50896L8.50728 2.8861ZM8.58157 2.69554L9.4564 3.00541L9.45631 3.00566L8.58157 2.69554ZM15.3003 4.21365L14.3722 4.21368V4.21365H15.3003ZM15.3005 9.62514L16.2286 9.62511V9.62514H15.3005ZM15.0124 10.3221L15.6692 10.9778L15.6686 10.9784L15.0124 10.3221ZM14.3153 10.6106V11.5387H11.0363L13.8288 9.82017L14.3153 10.6106ZM11.799 0.940417V0.0123243H13.0294L12.6913 1.19538L11.799 0.940417ZM9.07504 2.87063L9.94986 3.18055L9.94915 3.18254L9.07504 2.87063ZM8.98583 3.0989L9.8337 3.47636L9.83348 3.47685L8.98583 3.0989ZM8.86201 3.34669L9.56091 3.95735L8.95376 4.65223L8.25539 4.0491L8.86201 3.34669ZM8.85841 3.34358L8.03836 2.90898L8.58368 1.88002L9.46503 2.64118L8.85841 3.34358ZM7.1337 6.35088L7.93738 6.81505L7.93699 6.81572L7.1337 6.35088ZM7.0968 6.62721L6.20061 6.86848L6.19984 6.86558L7.0968 6.62721ZM7.26637 6.84843L6.8041 7.65321L6.80237 7.65221L7.26637 6.84843ZM8.03091 6.64311L7.22596 6.18113L7.22724 6.17892L8.03091 6.64311ZM9.02454 4.92282L8.22087 4.45862L8.22144 4.45765L9.02454 4.92282ZM9.31907 4.80113L9.0789 5.69762L9.0766 5.69699L9.31907 4.80113ZM9.94225 10.9531L9.89323 11.88L9.8813 11.8792L9.94225 10.9531ZM10.3016 10.8191L10.9578 11.4754L10.9572 11.476L10.3016 10.8191ZM10.9602 6.95564H11.8882V6.95568L10.9602 6.95564ZM10.96 11.2966H10.0319V11.2966L10.96 11.2966ZM11.7485 11.6234L12.4053 12.2791L12.4041 12.2803L11.7485 11.6234ZM12.4071 6.95564H13.3352V6.95568L12.4071 6.95564ZM12.4069 10.4519H11.4788V10.4519L12.4069 10.4519ZM13.1955 10.8188L13.8512 11.4757L13.8506 11.4763L13.1955 10.8188ZM13.8541 6.95545H14.7822V6.95557L13.8541 6.95545ZM13.8538 9.62526H12.9257V9.62515L13.8538 9.62526ZM14.6418 9.95227L15.298 10.6085L15.2974 10.6091L14.6418 9.95227ZM14.7767 9.62526H13.8486V9.62524L14.7767 9.62526ZM14.7769 4.21377H15.705V4.2138L14.7769 4.21377ZM11.7989 0.940471V1.86856H10.5685L10.9066 0.685504L11.7989 0.940471ZM14.3153 11.5387C13.9735 11.5387 13.6684 11.4441 13.4152 11.3083L14.2924 9.67243C14.3044 9.67886 14.312 9.68132 14.315 9.68214C14.3176 9.68284 14.3173 9.68248 14.3153 9.68248V11.5387ZM14.7819 10.4904V10.4923H12.9257V10.4904H14.7819ZM14.7819 10.4923C14.7819 11.0014 14.5821 11.4858 14.2207 11.8463L12.91 10.532C12.9166 10.5254 12.9199 10.5197 12.9218 10.5151C12.9237 10.5105 12.9257 10.5033 12.9257 10.4923H14.7819ZM14.2216 11.8454C13.8614 12.2056 13.3779 12.4057 12.8685 12.4057V10.5495C12.8792 10.5495 12.8862 10.5476 12.8909 10.5456C12.8957 10.5436 12.9018 10.5401 12.9091 10.5329L14.2216 11.8454ZM12.8685 12.4057C12.5223 12.4057 12.2134 12.3088 11.9573 12.1694L12.845 10.5392C12.8571 10.5458 12.8648 10.5483 12.8678 10.5491C12.8704 10.5498 12.8702 10.5495 12.8685 10.5495V12.4057ZM13.3277 11.4085C13.301 11.8653 13.1156 12.3083 12.7752 12.6491L11.462 11.3373C11.4654 11.3338 11.4674 11.3308 11.4691 11.327C11.4709 11.3228 11.4738 11.3143 11.4746 11.3001L13.3277 11.4085ZM12.7749 12.6495C12.4146 13.0097 11.931 13.2098 11.4216 13.2098V11.3536C11.4324 11.3536 11.4395 11.3516 11.4442 11.3497C11.449 11.3477 11.4551 11.3442 11.4623 11.337L12.7749 12.6495ZM11.4216 13.2098C10.397 13.2098 9.57481 12.4056 9.51562 11.4092L11.3685 11.2991C11.3695 11.3149 11.3759 11.3287 11.3874 11.3396C11.3929 11.3449 11.3986 11.3484 11.4035 11.3504C11.4078 11.3521 11.4133 11.3536 11.4216 11.3536V13.2098ZM10.8834 12.1706C10.5836 12.3326 10.2281 12.4261 9.84844 12.4017L9.96744 10.5493C9.96745 10.5493 9.96944 10.5495 9.97433 10.5483C9.97956 10.5471 9.98864 10.5442 10.0008 10.5377L10.8834 12.1706ZM9.8472 12.4016C8.81671 12.334 8.06132 11.4577 8.06132 10.462H9.91751C9.91751 10.4934 9.9289 10.5175 9.94318 10.5333C9.9571 10.5486 9.96655 10.5492 9.96867 10.5494L9.8472 12.4016ZM8.06132 10.462V6.03036H9.91751V10.462H8.06132ZM9.79321 6.49433L9.28859 7.36856L7.68099 6.44063L8.18562 5.56639L9.79321 6.49433ZM9.28943 7.3671C8.93081 7.99101 8.26327 8.37468 7.54544 8.37468V6.51849C7.60235 6.51849 7.65437 6.48694 7.68015 6.44209L9.28943 7.3671ZM7.54544 8.37468C7.19447 8.37468 6.84898 8.28264 6.54367 8.1077L7.46651 6.49717C7.49147 6.51147 7.5189 6.51849 7.54544 6.51849V8.37468ZM6.5396 8.10535C6.12292 7.86379 5.81963 7.47066 5.69453 7.00245L7.48781 6.52332C7.48696 6.52015 7.48465 6.51454 7.48018 6.50872C7.47574 6.50294 7.47164 6.50013 7.47057 6.49952L6.5396 8.10535ZM5.69481 7.00349C5.56922 6.53562 5.63497 6.04217 5.87721 5.6238L7.48355 6.55392C7.48487 6.55163 7.48719 6.54634 7.48819 6.53884C7.48918 6.53132 7.48835 6.52531 7.48753 6.52227L5.69481 7.00349ZM6.68038 5.16077C6.22512 5.2801 5.88435 5.61169 5.88181 5.61596C5.88096 5.61739 5.8797 5.61954 5.8793 5.62023C5.87906 5.62062 5.87867 5.6213 5.87854 5.62153C5.87845 5.62167 5.87828 5.62196 5.87824 5.62203C5.87811 5.62226 5.87815 5.62219 5.8785 5.62159C5.87913 5.6205 5.88019 5.61867 5.88173 5.616C5.88478 5.61073 5.88936 5.60281 5.89541 5.59234C5.90749 5.57143 5.92525 5.54069 5.94792 5.50145C5.99325 5.42297 6.05813 5.31064 6.13631 5.17527C6.29266 4.90453 6.50217 4.54171 6.71482 4.1734C7.14085 3.43554 7.57761 2.67888 7.62708 2.59262L9.23725 3.51608C9.18601 3.60543 8.74696 4.36603 8.32231 5.10152C8.10963 5.46988 7.90009 5.83276 7.7437 6.10355C7.66551 6.23895 7.6006 6.35134 7.55522 6.4299C7.53253 6.46917 7.51471 6.50002 7.50254 6.52108C7.49647 6.53159 7.49176 6.53974 7.48854 6.5453C7.48695 6.54805 7.48563 6.55032 7.48467 6.55199C7.48423 6.55276 7.48366 6.55372 7.48313 6.55464C7.48294 6.55498 7.48234 6.556 7.48162 6.55723C7.48117 6.558 7.47987 6.56021 7.479 6.56169C7.47642 6.56601 7.13565 6.89762 6.68038 7.01695V5.16077ZM7.58691 2.67109C7.59712 2.64856 7.62949 2.57592 7.65926 2.50897L9.3553 3.26322C9.32701 3.32682 9.29116 3.40734 9.27743 3.43761L7.58691 2.67109ZM7.65927 2.50896C7.67217 2.47995 7.68644 2.44289 7.70682 2.38541L9.45631 3.00566C9.43111 3.07675 9.39782 3.1676 9.35529 3.26323L7.65927 2.50896ZM7.70673 2.38566C8.33532 0.611045 9.9175 -0.511219 11.7989 -0.511219V1.34497C10.7069 1.34497 9.82354 1.96891 9.4564 3.00541L7.70673 2.38566ZM11.7989 -0.511219C14.3115 -0.511219 16.2284 1.67972 16.2284 4.21365H14.3722C14.3722 2.56046 13.1477 1.34497 11.7989 1.34497V-0.511219ZM16.2284 4.21362L16.2286 9.62511L14.3724 9.62517L14.3722 4.21368L16.2284 4.21362ZM16.2286 9.62514C16.2286 10.1341 16.0289 10.6174 15.6692 10.9778L14.3555 9.66647C14.3628 9.65912 14.3664 9.65287 14.3684 9.648C14.3704 9.64312 14.3724 9.63596 14.3724 9.62514H16.2286ZM15.6686 10.9784C15.3084 11.3387 14.8247 11.5387 14.3153 11.5387V9.6825C14.3262 9.6825 14.3333 9.68052 14.338 9.67856C14.3428 9.6766 14.3489 9.6731 14.3561 9.66587L15.6686 10.9784ZM13.8288 9.82017L13.8289 9.82015L14.8017 11.401L14.8017 11.401L13.8288 9.82017ZM11.799 1.86851C10.9166 1.86851 10.2474 2.34055 9.94986 3.18055L8.20022 2.56071C8.75899 0.983459 10.1263 0.0123243 11.799 0.0123243V1.86851ZM9.94915 3.18254C9.91985 3.26464 9.88179 3.36833 9.8337 3.47636L8.13796 2.72145C8.15645 2.67992 8.17546 2.63011 8.20093 2.55871L9.94915 3.18254ZM9.83348 3.47685C9.79098 3.57217 9.75537 3.65267 9.72812 3.7072C9.71121 3.74104 9.68384 3.7932 9.64413 3.85097C9.6039 3.9095 9.56415 3.95365 9.56091 3.95735L8.16312 2.73604C8.16529 2.73355 8.16458 2.73436 8.16348 2.73563C8.16206 2.73728 8.15846 2.74149 8.15373 2.74726C8.14882 2.75323 8.14265 2.76095 8.13569 2.77013C8.12867 2.77939 8.12153 2.78924 8.11439 2.79963C8.09985 2.82079 8.08865 2.83932 8.08069 2.85333C8.07326 2.86642 8.06871 2.87547 8.06769 2.87751C8.06664 2.87962 8.0673 2.87838 8.07045 2.87163C8.0735 2.86508 8.07783 2.85566 8.08404 2.84195C8.09019 2.82835 8.09756 2.81193 8.10664 2.79164C8.11569 2.77138 8.12604 2.74817 8.13818 2.72096L9.83348 3.47685ZM8.25539 4.0491L8.25179 4.04598L9.46503 2.64118L9.46863 2.64429L8.25539 4.0491ZM9.67845 3.77818C9.5332 4.05226 9.11852 4.76999 7.93738 6.81505L6.33002 5.88671C7.52775 3.81291 7.91401 3.1436 8.03836 2.90898L9.67845 3.77818ZM7.93699 6.81572C8.01126 6.68739 8.03195 6.53255 7.99376 6.38883L6.19984 6.86558C6.11179 6.53426 6.1584 6.18329 6.3304 5.88604L7.93699 6.81572ZM7.99298 6.38593C7.95479 6.24408 7.86093 6.12002 7.73037 6.04465L6.80237 7.65221C6.50421 7.48009 6.28932 7.19794 6.20062 6.86848L7.99298 6.38593ZM7.72864 6.04366C7.62299 5.98297 7.52025 5.98337 7.4493 6.00248C7.37862 6.0215 7.288 6.07305 7.22596 6.18113L8.83585 7.1051C8.43136 7.80985 7.50697 8.05694 6.8041 7.65321L7.72864 6.04366ZM7.22724 6.17892L8.22087 4.45862L9.82821 5.38701L8.83457 7.10731L7.22724 6.17892ZM8.22144 4.45765C8.48951 3.99483 9.03667 3.76322 9.56154 3.90528L9.0766 5.69699C9.37122 5.77674 9.6783 5.64581 9.82764 5.38799L8.22144 4.45765ZM9.55924 3.90466C10.0799 4.04415 10.4412 4.51599 10.4412 5.05401H8.58498C8.58498 5.35523 8.78716 5.61946 9.0789 5.69761L9.55924 3.90466ZM10.4412 5.05401V10.4621H8.58498V5.05401H10.4412ZM10.4412 10.4621C10.4412 10.3564 10.402 10.2602 10.3377 10.1867C10.2735 10.1132 10.1601 10.0374 10.0032 10.027L9.8813 11.8792C9.10002 11.8278 8.58498 11.1472 8.58498 10.4621H10.4412ZM9.99127 10.0263C9.88162 10.0205 9.74767 10.0607 9.64587 10.1623L10.9572 11.476C10.6642 11.7685 10.2758 11.9001 9.89324 11.8799L9.99127 10.0263ZM9.6453 10.1629C9.55722 10.251 9.50827 10.3716 9.50827 10.4926H11.3645C11.3645 10.8613 11.2197 11.2135 10.9578 11.4754L9.6453 10.1629ZM9.50827 10.4926V6.95564H11.3645V10.4926H9.50827ZM9.50827 6.95564C9.50827 6.29843 10.041 5.76565 10.6983 5.76565V7.62184C11.0662 7.62184 11.3645 7.32357 11.3645 6.95564H9.50827ZM10.6983 5.76565C11.3551 5.76565 11.8882 6.29789 11.8882 6.95564H10.0321C10.0321 7.32378 10.3307 7.62184 10.6983 7.62184V5.76565ZM11.8882 6.95568L11.8881 11.2966L10.0319 11.2966L10.0321 6.95561L11.8882 6.95568ZM11.8881 11.2966C11.8881 11.0385 11.6797 10.8301 11.4216 10.8301V12.6863C10.6545 12.6863 10.0319 12.0637 10.0319 11.2966H11.8881ZM11.4216 10.8301C11.3008 10.8301 11.1807 10.8788 11.0928 10.9665L12.4041 12.2803C12.142 12.5419 11.7897 12.6863 11.4216 12.6863V10.8301ZM11.0916 10.9678C11.0038 11.0557 10.9552 11.1758 10.9552 11.2966H12.8114C12.8114 11.6647 12.6669 12.017 12.4053 12.2791L11.0916 10.9678ZM10.9552 11.2966V6.95564H12.8114V11.2966H10.9552ZM10.9552 6.95564C10.9552 6.29881 11.4874 5.76565 12.1452 5.76565V7.62183C12.5133 7.62183 12.8114 7.32318 12.8114 6.95564H10.9552ZM12.1452 5.76565C12.802 5.76565 13.3352 6.29788 13.3352 6.95564H11.479C11.479 7.32378 11.7776 7.62183 12.1452 7.62183V5.76565ZM13.3352 6.95568L13.335 10.452L11.4788 10.4519L11.479 6.95559L13.3352 6.95568ZM13.335 10.4519V10.4926H11.4788V10.4519H13.335ZM13.335 10.4926C13.335 10.2339 13.1261 10.026 12.8687 10.026V11.8822C12.1019 11.8822 11.4788 11.26 11.4788 10.4926H13.335ZM12.8687 10.026C12.7454 10.026 12.626 10.0761 12.5405 10.1613L13.8506 11.4763C13.5899 11.7359 13.239 11.8822 12.8687 11.8822V10.026ZM12.5399 10.1619C12.4511 10.2505 12.4022 10.3716 12.4022 10.4924H14.2584C14.2584 10.8609 14.1138 11.2136 13.8512 11.4757L12.5399 10.1619ZM12.4022 10.4924V6.95545H14.2584V10.4924H12.4022ZM12.4022 6.95545C12.4022 6.29861 12.9345 5.76547 13.5922 5.76547V7.62165C13.9604 7.62165 14.2584 7.32301 14.2584 6.95545H12.4022ZM13.5922 5.76547C14.2491 5.76547 14.7822 6.2977 14.7822 6.95545H12.926C12.926 7.3236 13.2247 7.62165 13.5922 7.62165V5.76547ZM14.7822 6.95557L14.7819 9.62538L12.9257 9.62515L12.926 6.95534L14.7822 6.95557ZM14.7819 9.62526C14.7819 9.36781 14.5739 9.15897 14.3153 9.15897V11.0152C13.5479 11.0152 12.9257 10.3921 12.9257 9.62526H14.7819ZM14.3153 9.15897C14.1935 9.15897 14.0734 9.20827 13.9861 9.29539L15.2974 10.6091C15.0363 10.8698 14.6846 11.0152 14.3153 11.0152V9.15897ZM13.9855 9.29601C13.8971 9.38438 13.8486 9.50499 13.8486 9.62526H15.7048C15.7048 9.99283 15.5609 10.3457 15.298 10.6085L13.9855 9.29601ZM13.8486 9.62524L13.8488 4.21375L15.705 4.2138L15.7048 9.62529L13.8486 9.62524ZM13.8488 4.21377C13.8488 2.83704 12.8478 1.86856 11.7989 1.86856V0.0123777C14.0343 0.0123777 15.705 1.98106 15.705 4.21377H13.8488ZM10.9066 0.685504L10.9066 0.685451L12.6913 1.19538L12.6913 1.19544L10.9066 0.685504Z" fill="#4CAF4F" mask="url(#path-1-inside-1_211_2339)"/>
<path d="M5.8327 15.5855C5.7084 15.6603 5.54768 15.6199 5.47339 15.4958C5.39894 15.3718 5.43928 15.2109 5.5631 15.1365M5.8327 15.5855L8.0953 12.541C8.3139 12.4096 8.6022 12.4614 8.737 12.6564M5.8327 15.5855L8.86557 13.766H8.86573L8.86606 13.7658M5.8327 15.5855L10.0301 14.1441C10.136 14.0805 10.2108 13.9798 10.2406 13.8603M5.5631 15.1365L8.59613 13.317C8.70207 13.2533 8.77702 13.1525 8.80686 13.0333M5.5631 15.1365L5.5938 15.1877L5.6978 15.361L5.69801 15.3614L5.74487 15.4395L5.80181 15.5344L5.80193 15.5343L5.80199 15.5343L5.80223 15.5342M5.5631 15.1365L5.59385 15.1876M8.80686 13.0333C8.83966 12.9024 8.81473 12.7686 8.737 12.6564M8.80686 13.0333L8.88172 13.052L8.87457 12.8981C8.86965 12.7922 8.83866 12.6982 8.78625 12.6227L8.7861 12.6225L8.737 12.6564M8.80686 13.0333L8.88172 13.052L8.8891 13.2108L8.73726 13.3019H8.73705L8.62684 13.368L8.62682 13.3681L8.62679 13.3681L5.59397 15.1875M8.737 12.6564L8.78606 12.6224L6.54674 16.7749C6.64197 16.7176 6.67347 16.5938 6.61573 16.4976C6.55847 16.4023 6.43421 16.3709 6.3385 16.4283L9.37137 14.6089C9.44107 14.567 9.5141 14.5354 9.58868 14.5137L10.0591 14.1925L10.0591 14.1925L10.085 14.1748C10.1954 14.0994 10.2684 13.995 10.2984 13.8748L10.2984 13.8747L10.2406 13.8603M5.59397 15.1875C5.68942 15.1305 5.81365 15.1614 5.87122 15.2569C5.87134 15.2571 5.87146 15.2573 5.87159 15.2575C5.92882 15.3535 5.89726 15.477 5.80223 15.5342M5.59397 15.1875C5.59393 15.1876 5.59389 15.1876 5.59385 15.1876M5.59397 15.1875L5.59385 15.1876M5.80223 15.5342L8.83485 13.7149L8.83491 13.7149L8.83506 13.7148C8.83516 13.7147 8.83525 13.7147 8.83534 13.7146L8.86557 13.765L8.86573 13.7653L8.86606 13.7658M5.80223 15.5342L5.69824 15.3612L5.69803 15.3609L5.66285 15.3024L5.59385 15.1876M8.86606 13.7658V13.6953C8.92458 13.657 8.97814 13.6126 9.02596 13.563L9.52518 13.3024L9.5252 13.3024L9.55285 13.288C9.6331 13.2461 9.71403 13.2265 9.79089 13.2265C9.83246 13.2265 9.87533 13.2317 9.919 13.2425C9.91903 13.2425 9.91905 13.2425 9.91908 13.2425C9.91923 13.2425 9.91938 13.2426 9.91953 13.2426L10.0172 12.8502M8.86606 13.7658L9.55515 13.3524C9.66076 13.2891 9.78442 13.2706 9.90462 13.3004C10.0242 13.3302 10.125 13.405 10.1885 13.5108C10.252 13.6167 10.2705 13.7409 10.2406 13.8603M10.0172 12.8502C10.0172 12.8502 10.0172 12.8502 10.0172 12.8502M10.0172 12.8502C10.2563 12.91 10.4597 13.0609 10.5863 13.2719L10.6374 13.2413M10.0172 12.8502L10.0316 12.7923M10.0172 12.8502L9.91916 13.2425C10.0549 13.2764 10.1674 13.3598 10.2395 13.48C10.2395 13.48 10.2395 13.4801 10.2396 13.4801C10.2396 13.4802 10.2396 13.4802 10.2396 13.4802C10.3119 13.6009 10.3323 13.7393 10.2984 13.8746L10.2984 13.8747L10.2406 13.8603M10.0172 12.8502C10.0171 12.8502 10.0171 12.8502 10.017 12.8502L10.0164 12.85C9.94474 12.8322 9.87208 12.8231 9.7998 12.8225M10.0172 12.8502L10.0316 12.7923M9.57955 14.9555L9.84116 14.7986L10.1109 14.9577C10.1917 15.0054 10.2528 15.0651 10.2941 15.134L10.2942 15.1343C10.2942 15.1344 10.2943 15.1344 10.2943 15.1345L10.2434 15.1651M9.57955 14.9555L10.3534 15.5291C10.3871 15.3935 10.3665 15.2551 10.2944 15.1346L10.2434 15.1651M9.57955 14.9555L9.61025 15.0067M9.57955 14.9555L9.57953 14.9556L9.61025 15.0067M10.2434 15.1651C10.1124 14.9469 9.8282 14.8758 9.61025 15.0067M10.2434 15.1651C10.3071 15.2709 10.3256 15.3952 10.2957 15.5148L9.61025 15.0067M10.6856 14.8848C10.6878 14.8884 10.69 14.8921 10.6922 14.8957L10.6856 14.8848ZM10.6856 14.8848C10.6699 14.8971 10.654 14.909 10.6378 14.9206C10.6389 14.9224 10.64 14.9241 10.6411 14.9259L10.6856 14.8848ZM10.6134 14.1771C10.6468 14.113 10.6729 14.0445 10.6908 13.9728L10.6134 14.1771ZM10.6134 14.1771C10.63 14.1874 10.6465 14.1981 10.6629 14.2092C10.7001 14.1399 10.7291 14.0656 10.7486 13.9872C10.8124 13.7321 10.7729 13.4673 10.6374 13.2413M10.6134 14.1771L10.6909 13.9727C10.7506 13.7336 10.7129 13.4833 10.5866 13.2723L10.5864 13.272C10.5864 13.272 10.5864 13.272 10.5863 13.2719L10.6374 13.2413M10.6374 13.2413C10.5021 13.0157 10.287 12.8561 10.0316 12.7923M10.0316 12.7923L9.79456 12.7625M9.79456 12.7625C9.79671 12.7825 9.79845 12.8025 9.7998 12.8225M9.79456 12.7625C9.79334 12.7625 9.79212 12.7625 9.79089 12.7625C9.63396 12.7625 9.4798 12.8026 9.33812 12.8766M9.79456 12.7625L9.33812 12.8766M9.7998 12.8225C9.80054 12.8333 9.80116 12.8442 9.80166 12.8551L9.79089 12.8556L9.5028 12.869M9.7998 12.8225C9.79683 12.8224 9.79386 12.8224 9.79089 12.8224C9.69297 12.8225 9.59584 12.8382 9.5028 12.869M9.5028 12.869L9.33812 12.8766M9.5028 12.869C9.45555 12.8846 9.40935 12.9041 9.36465 12.9274C9.34842 12.9359 9.33239 12.9449 9.31658 12.9544L9.31642 12.9545L9.28342 12.9743M9.33812 12.8766L9.07364 13.1001L9.07373 13.1001L9.25702 13.1459C9.25701 13.146 9.257 13.146 9.25699 13.1461C9.27129 13.089 9.28005 13.0315 9.28342 12.9743M9.33812 12.8766L9.26727 12.7409M9.33812 12.8766C9.33077 12.7185 9.28909 12.5628 9.2091 12.4238C9.19091 12.4319 9.17289 12.4404 9.15505 12.4492M9.28342 12.9743C9.2853 12.9424 9.28551 12.9107 9.28409 12.8791C9.282 12.8326 9.27636 12.7864 9.26727 12.7409M9.28342 12.9743L9.26727 12.7409M9.26727 12.7409L9.12338 12.4652C9.13387 12.4598 9.14443 12.4544 9.15505 12.4492M9.26727 12.7409L9.11851 12.3922C9.13142 12.4109 9.1436 12.4298 9.15505 12.4492M9.26727 12.7409C9.24688 12.6389 9.20911 12.5404 9.15505 12.4492M10.3467 14.558L10.426 14.4236C10.3916 14.4557 10.3547 14.4853 10.3154 14.5122C10.3003 14.5225 10.2848 14.5325 10.269 14.5419L10.2688 14.5421L10.2353 14.5622L10.3467 14.558ZM2.93587 12.3984L2.88311 12.3706C2.87341 12.3881 2.84927 12.4316 2.8136 12.4959C2.80477 12.5118 2.79523 12.529 2.78503 12.5473C2.80321 12.5564 2.82155 12.5644 2.83993 12.5713C2.8713 12.5148 2.90328 12.4571 2.93587 12.3984ZM7.08285 17.6691C7.0828 17.6691 7.08275 17.6691 7.0827 17.6691L7.08285 17.6691Z" fill="#4CAF4F" stroke="#4CAF4F" stroke-width="0.928093"/>
<path d="M18.7846 13.2345L18.7845 13.2345L18.7846 13.2345ZM18.7846 13.2345C18.6874 13.0603 18.6913 12.8458 18.7943 12.6741L18.7846 13.2345ZM13.043 12.8222C12.9705 12.8228 12.8976 12.832 12.8257 12.85L13.043 12.8222ZM13.043 12.8222C13.0444 12.8023 13.0461 12.7823 13.0483 12.7623L13.043 12.8222ZM18.3669 13.5599L18.3275 13.4889L18.3669 13.5599ZM17.2488 15.1874C17.2487 15.1874 17.2486 15.1873 17.2485 15.1873L17.2487 15.1874L17.2488 15.1874ZM15.7599 17.6694C15.7598 17.6693 15.7597 17.6693 15.7596 17.6692L15.7599 17.6694ZM15.7595 17.6691L15.7596 17.6692L15.7595 17.6691Z" fill="#4CAF4F" stroke="#4CAF4F" stroke-width="0.928093"/>
</svg>
