<svg width="35" height="34" viewBox="0 0 35 34" fill="none" xmlns="http://www.w3.org/2000/svg">
<path d="M4.43671 11.4802V11.8282H4.78474H29.8432H30.1913V11.4802V9.914C30.1913 9.12941 29.8796 8.37696 29.3248 7.82217C28.77 7.26738 28.0176 6.9557 27.233 6.9557H7.395C6.61041 6.9557 5.85796 7.26738 5.30317 7.82217C4.74838 8.37696 4.43671 9.12941 4.43671 9.914V11.4802ZM30.1913 13.5684V13.2203H29.8432H4.78474H4.43671V13.5684V23.4874C4.43671 24.2719 4.74838 25.0244 5.30317 25.5792C5.85796 26.134 6.61041 26.4456 7.395 26.4456H27.233C28.0176 26.4456 28.77 26.134 29.3248 25.5792C29.8796 25.0244 30.1913 24.2719 30.1913 23.4874V13.5684ZM3.04457 9.914C3.04457 8.76019 3.50292 7.65364 4.31878 6.83778C5.13465 6.02191 6.2412 5.56357 7.395 5.56357H27.233C28.3868 5.56357 29.4933 6.02191 30.3092 6.83778C31.1251 7.65364 31.5834 8.76019 31.5834 9.914V23.4874C31.5834 24.6412 31.1251 25.7477 30.3092 26.5636C29.4933 27.3794 28.3868 27.8378 27.233 27.8378H7.395C6.2412 27.8378 5.13465 27.3794 4.31878 26.5636C3.50292 25.7477 3.04457 24.6412 3.04457 23.4874V9.914ZM22.5345 20.181H25.6668C25.8514 20.181 26.0285 20.2544 26.159 20.3849C26.2896 20.5154 26.3629 20.6925 26.3629 20.8771C26.3629 21.0617 26.2896 21.2388 26.159 21.3693C26.0285 21.4998 25.8514 21.5732 25.6668 21.5732H22.5345C22.3499 21.5732 22.1729 21.4998 22.0423 21.3693C21.9118 21.2388 21.8384 21.0617 21.8384 20.8771C21.8384 20.6925 21.9118 20.5154 22.0423 20.3849C22.1729 20.2544 22.3499 20.181 22.5345 20.181Z" fill="#4CAF4F" stroke="#4CAF4F" stroke-width="0.696069"/>
</svg>
