<svg width="24" height="27" viewBox="0 0 24 27" fill="none" xmlns="http://www.w3.org/2000/svg">
<path d="M23.0713 26.2299V23.4456C23.0713 21.9688 22.4847 20.5524 21.4403 19.5081C20.396 18.4638 18.9797 17.8771 17.5028 17.8771H16.1106C15.7414 17.8771 15.3873 17.7304 15.1263 17.4693C14.8652 17.2083 14.7185 16.8542 14.7185 16.485V9.52426C14.7185 8.78582 14.4252 8.07763 13.903 7.55548C13.3809 7.03332 12.6727 6.73998 11.9342 6.73998C11.1958 6.73998 10.4876 7.03332 9.96545 7.55548C9.4433 8.07763 9.14995 8.78582 9.14995 9.52426V22.0535L5.80882 17.5987C5.54947 17.2529 5.21318 16.9722 4.82656 16.7789C4.43995 16.5856 4.01364 16.485 3.5814 16.485H2.97721C1.77301 16.485 0.797119 17.4608 0.797119 18.665C0.797119 19.0604 0.904314 19.4488 1.10757 19.7871L4.97354 26.2299M11.9342 2.56356V1.17142V2.56356ZM20.2871 10.9164H21.6792H20.2871ZM2.18926 10.9164H3.5814H2.18926ZM5.45104 4.43321L4.4668 3.44896L5.45104 4.43321ZM18.4174 4.43321L19.4017 3.44896L18.4174 4.43321Z" fill="#4CAF4F"/>
<path d="M23.0713 26.2299V23.4456C23.0713 21.9688 22.4847 20.5524 21.4403 19.5081C20.396 18.4638 18.9797 17.8771 17.5028 17.8771H16.1106C15.7414 17.8771 15.3873 17.7304 15.1263 17.4693C14.8652 17.2083 14.7185 16.8542 14.7185 16.485V9.52426C14.7185 8.78582 14.4252 8.07763 13.903 7.55548C13.3809 7.03332 12.6727 6.73998 11.9342 6.73998V6.73998C11.1958 6.73998 10.4876 7.03332 9.96545 7.55548C9.4433 8.07763 9.14995 8.78582 9.14995 9.52426V22.0535L5.80882 17.5987C5.54947 17.2529 5.21318 16.9722 4.82656 16.7789C4.43995 16.5856 4.01364 16.485 3.5814 16.485H2.97721C1.77301 16.485 0.797119 17.4608 0.797119 18.665C0.797119 19.0604 0.904314 19.4488 1.10757 19.7871L4.97354 26.2299M11.9342 2.56356V1.17142M20.2871 10.9164H21.6792M2.18926 10.9164H3.5814M5.45104 4.43321L4.4668 3.44896M18.4174 4.43321L19.4017 3.44896" stroke="#4CAF4F" stroke-width="1.39214" stroke-linecap="round" stroke-linejoin="round"/>
</svg>
